<?xml version="1.0" encoding="utf-8"?>
<!-- Generator: Adobe Illustrator 26.0.1, SVG Export Plug-In . SVG Version: 6.00 Build 0)  -->
<svg version="1.1" id="Layer_1" xmlns="http://www.w3.org/2000/svg" xmlns:xlink="http://www.w3.org/1999/xlink" x="0px" y="0px"
	 viewBox="0 0 35.8 80" style="enable-background:new 0 0 35.8 80;" xml:space="preserve">
<style type="text/css">
	.st0{fill:#FFFFFF;}
	.st1{fill:#CB4A68;}
</style>
<g id="definedsolution">
	<g id="Group">
		<path id="Vector" class="st0" d="M35.8,28.2c0,2.5-0.7,5-1.9,7.1c-0.6,1-1.4,2-2.2,2.9c-2.6,2.7-6.3,4.2-10,4.2h-0.1v0h-13
			c-1.5,0-2.8,1.2-2.8,2.8v0c0,0.4,0.1,0.8,0.2,1.1c0.3,0.7,0.8,1.2,1.5,1.5c0.4,0.1,0.7,0.2,1.1,0.2h5.7c1.1,0,2.3,0.2,3.3,0.7
			c2,0.9,3.7,2.5,4.5,4.5c0.9,2.1,0.9,4.5,0,6.6c-0.4,1-1,1.9-1.8,2.7c-0.8,0.8-1.7,1.4-2.7,1.8c-1,0.5-2.2,0.7-3.3,0.7H1.6v-5.7
			h12.6c1.6,0,2.8-1.3,2.8-2.8c0-1.6-1.3-2.8-2.8-2.8H8.5c-1.1,0-2.3-0.2-3.3-0.7c-2-0.9-3.7-2.5-4.5-4.5c-0.5-1-0.7-2.2-0.7-3.3
			c0-1.1,0.2-2.3,0.7-3.3c0.9-2,2.5-3.7,4.5-4.5c1-0.5,2.2-0.7,3.3-0.7h12.2l0.9,0c1.1,0,2.3-0.2,3.3-0.7c2-0.9,3.7-2.5,4.5-4.5
			c0.4-1,0.7-2.2,0.7-3.3c0-1.1-0.2-2.3-0.7-3.3c-0.4-1-1-1.9-1.8-2.7c-0.8-0.8-1.7-1.4-2.7-1.8c-1-0.5-2.2-0.7-3.3-0.7h-2.8v15.6
			h-5.7V14h8.5c1.3,0,2.5,0.2,3.8,0.5c2.4,0.7,4.5,1.9,6.3,3.7c0.9,0.9,1.6,1.8,2.2,2.9C35.1,23.2,35.8,25.7,35.8,28.2L35.8,28.2z"
			/>
		<path id="Vector_2" class="st1" d="M34,61c0,0.5-0.1,1-0.3,1.4c-0.2,0.4-0.4,0.8-0.8,1.1c-0.3,0.3-0.7,0.6-1.2,0.8
			c-0.9,0.4-1.9,0.4-2.8,0c-0.9-0.4-1.6-1-1.9-1.9c-0.4-0.9-0.4-1.9,0-2.8c0.4-0.9,1.1-1.6,1.9-1.9c0.9-0.4,1.9-0.4,2.8,0
			c0.4,0.2,0.8,0.4,1.2,0.8c0.3,0.3,0.6,0.7,0.8,1.1C33.9,60,34,60.5,34,61z"/>
	</g>
</g>
</svg>
