<?xml version="1.0" encoding="utf-8"?>
<!-- Generator: Adobe Illustrator 26.0.1, SVG Export Plug-In . SVG Version: 6.00 Build 0)  -->
<svg version="1.1" id="Layer_1" xmlns="http://www.w3.org/2000/svg" xmlns:xlink="http://www.w3.org/1999/xlink" x="0px" y="0px"
	 viewBox="0 0 42.9 49.5" style="enable-background:new 0 0 42.9 49.5;" xml:space="preserve">
<style type="text/css">
	.st0{fill:#FBB03B;}
	.st1{opacity:0.91;}
	.st2{opacity:0.91;fill:#FFFFFF;enable-background:new    ;}
	.st3{opacity:0.91;fill:#FBB03B;enable-background:new    ;}
	.st4{opacity:0.91;fill:#F2F2F2;enable-background:new    ;}
</style>
<path id="Vector_26" class="st0" d="M16.9,49.5l-0.7-1.1C15.6,47.4,2,25.7,2,17.9c0-2.9,0.9-5.8,2.5-8.2c1.6-2.4,4-4.3,6.7-5.4
	c2.7-1.1,5.7-1.4,8.6-0.8c2.9,0.6,5.5,2,7.6,4l-1.2,1.2c-1.8-1.8-4.2-3.1-6.8-3.6c-2.6-0.5-5.2-0.2-7.6,0.7c-2.4,1-4.5,2.7-5.9,4.8
	c-1.5,2.1-2.2,4.7-2.2,7.2c0,6.4,10.4,23.8,13.2,28.5c2.3-3.6,9.3-14.9,11.8-22.7l1.6,0.5c-3,9.6-12.3,23.7-12.7,24.3L16.9,49.5z"/>
<g id="Group_3" class="st1">
	<path id="Vector_27" class="st2" d="M17.8,27.8c-2,0-4-0.5-5.7-1.5c-1.7-1-3.2-2.4-4.2-4.2c-1-1.7-1.5-3.7-1.5-5.7
		c0-2,0.6-3.9,1.6-5.6c-1,1.2-1.7,2.6-2.1,4s-0.5,3-0.3,4.5c0.2,1.5,0.8,3,1.6,4.3c0.8,1.3,1.9,2.4,3.2,3.3c1.3,0.9,2.7,1.5,4.2,1.8
		c1.5,0.3,3.1,0.3,4.6,0c1.5-0.3,3-0.9,4.2-1.8c1.3-0.9,2.3-2,3.1-3.3c-1.1,1.3-2.4,2.4-3.9,3.1C21.1,27.4,19.5,27.8,17.8,27.8"/>
	<path id="Vector_28" class="st3" d="M16.9,29.2c-3.1,0-6-1.2-8.2-3.3c-2.2-2.1-3.4-5-3.4-8c0-2.6,0.9-5.1,2.5-7.1L8.2,11
		c-1.5,2.4-1.9,5.2-1.3,7.9c0.6,2.7,2.2,5.1,4.5,6.7c2.3,1.6,5.2,2.3,7.9,1.9c2.8-0.4,5.3-1.8,7.1-4l0.4,0.2c-1,1.7-2.5,3.1-4.2,4
		C20.9,28.7,18.9,29.2,16.9,29.2z M6.6,13.8c-0.9,2.3-1.1,4.8-0.3,7.2c0.7,2.4,2.2,4.4,4.3,5.9c2.1,1.4,4.5,2.1,7.1,2
		c2.5-0.2,4.9-1.1,6.8-2.8c-1.7,1.2-3.8,1.9-5.9,2c-2.1,0.1-4.2-0.3-6.1-1.3c-1.9-1-3.4-2.4-4.5-4.2c-1.1-1.8-1.7-3.8-1.7-5.9
		C6.2,15.7,6.3,14.7,6.6,13.8z"/>
</g>
<g id="Group_4" class="st1">
	<path id="Vector_29" class="st4" d="M12,19.2c0,0,1.8-5.4,6.9-5.4c0,0,1.7,5,4,5.6c0,0,8-16.5,18.5-18.8c0,0-3.4,6.2-1.1,9.8
		c-3,0-5.9,0.9-8.4,2.6c-3.8,2.6-7.4,8.1-7.8,10.9C23.9,23.9,17.4,19.2,12,19.2z"/>
	<path id="Vector_30" class="st3" d="M24.3,24.6l-0.6-0.4c-0.1-0.1-6.5-4.6-11.7-4.6h-0.6l0.2-0.5c0-0.1,1.9-5.7,7.3-5.7h0.3
		l0.1,0.3c0.4,1.3,1.8,4.5,3.4,5.2c1.2-2.5,8.7-16.5,18.6-18.7L42.1,0l-0.4,0.8c0,0.1-3.3,6-1.2,9.4l0.4,0.7l-0.8,0
		c-2.9,0-5.7,0.9-8.1,2.5c-3.7,2.5-7.3,7.9-7.6,10.6L24.3,24.6z M12.6,18.8c4.5,0.3,9.4,3.3,11.1,4.4c0.8-3,4.2-8,7.9-10.5
		c2.3-1.6,5.1-2.5,7.9-2.6c-1.3-3,0.2-7,1-8.8c-9.7,2.9-17.2,18.2-17.3,18.3L23,19.9l-0.3-0.1c-2.2-0.5-3.7-4.4-4.2-5.6
		C14.9,14.4,13.1,17.5,12.6,18.8z"/>
</g>
</svg>
